<?xml version="1.0" encoding="utf-8"?>
<!-- Generator: Adobe Illustrator 27.9.1, SVG Export Plug-In . SVG Version: 6.00 Build 0)  -->
<svg version="1.1" id="Слой_1" xmlns="http://www.w3.org/2000/svg" xmlns:xlink="http://www.w3.org/1999/xlink" x="0px" y="0px"
	 viewBox="0 0 599.78 592.05" style="enable-background:new 0 0 599.78 592.05;" xml:space="preserve">
<style type="text/css">
	.st0{fill:#FFFFFF;}
</style>
<g>
	<g>
		<path class="st0" d="M295.94,559.91c-69.72,0-135.27-27.15-184.58-76.45c-49.3-49.3-76.45-114.85-76.45-184.58
			c0-69.72,27.15-135.28,76.45-184.58c49.3-49.3,114.85-76.45,184.58-76.45s135.27,27.15,184.58,76.45
			c49.3,49.3,76.45,114.85,76.45,184.58c0,69.72-27.15,135.27-76.45,184.58C431.22,532.75,365.67,559.91,295.94,559.91z
			 M295.94,45.78c-139.56,0-253.1,113.54-253.1,253.1c0,139.56,113.54,253.1,253.1,253.1s253.1-113.54,253.1-253.1
			C549.04,159.31,435.5,45.78,295.94,45.78z"/>
	</g>
	<g>
		<path class="st0" d="M186.23,488.84l-8.7,14.4l-10.55-6.37l8.7-14.4l2.96,1.79l-7.06,11.68l4.63,2.8l7.06-11.68L186.23,488.84z"/>
		<path class="st0" d="M158.82,470.52l8.77,6.48l-10,13.53l-8.7-6.43l1.86-2.51l5.93,4.38l2.19-2.96l-5.22-3.86l1.86-2.51l5.22,3.86
			l2.24-3.03l-6.01-4.44L158.82,470.52z"/>
		<path class="st0" d="M134.6,467.73l3.13,2.77l9.02-10.18l2.61,2.31l-9.01,10.18l3.15,2.79l-2.13,2.41l-8.89-7.87L134.6,467.73z"/>
		<path class="st0" d="M129.83,443.48l7.49,7.93l-12.23,11.55l-7.43-7.86l2.27-2.15l5.07,5.36l2.67-2.52l-4.46-4.72l2.27-2.15
			l4.45,4.72l2.74-2.59l-5.13-5.43L129.83,443.48z"/>
		<path class="st0" d="M107.99,434.12c1.47-1.16,2.98-1.59,4.51-1.3c1.53,0.29,2.87,1.16,4.01,2.61l1.22,1.55l4.03-3.16l2.14,2.72
			l-13.23,10.38l-3.44-4.38c-1.17-1.49-1.69-2.98-1.56-4.49C105.79,436.55,106.57,435.24,107.99,434.12z M110.21,436.83
			c-0.7,0.55-1.09,1.16-1.16,1.83c-0.07,0.67,0.16,1.34,0.7,2.02l1.25,1.59l4.27-3.35l-1.26-1.61c-0.51-0.65-1.11-1.02-1.8-1.11
			C111.52,436.12,110.86,436.33,110.21,436.83z"/>
		<path class="st0" d="M111.65,420.24l-14.15,9.1l-5.99-9.32l2.67-1.72l4.12,6.41l2.49-1.6l-1.69-2.63
			c-0.94-1.46-1.28-2.87-1.04-4.23c0.24-1.37,1.06-2.5,2.45-3.39c1.44-0.93,2.85-1.19,4.22-0.79c1.37,0.4,2.52,1.32,3.44,2.75
			L111.65,420.24z M107.15,419.02l-1.68-2.61c-0.37-0.58-0.83-0.92-1.38-1.04c-0.55-0.11-1.1,0.01-1.65,0.36
			c-0.62,0.4-0.98,0.87-1.08,1.4c-0.1,0.53,0.03,1.1,0.42,1.69l1.66,2.59L107.15,419.02z"/>
		<path class="st0" d="M99.67,400.09c0.49,0.95,0.69,1.88,0.59,2.78l-2.74,0.19c-0.05-0.62-0.17-1.11-0.35-1.47
			c-0.37-0.73-1.14-1.08-2.31-1.08l-8.54,10.7l-1.74-3.38l5.79-7.07l-8.97,0.9l-1.68-3.27l13.75-1.06c1.66-0.13,2.96-0.01,3.89,0.39
			C98.29,398.12,99.06,398.9,99.67,400.09z"/>
		<path class="st0" d="M76.71,376.33c1.74-0.7,3.3-0.69,4.69,0.02c1.39,0.71,2.43,1.92,3.12,3.63l0.74,1.83L90,379.9l1.29,3.21
			l-15.61,6.28l-2.08-5.17c-0.71-1.75-0.79-3.34-0.24-4.75C73.91,378.05,75.03,377.01,76.71,376.33z M78.08,379.56
			c-0.83,0.33-1.38,0.81-1.63,1.43s-0.22,1.33,0.11,2.13l0.75,1.87l5.04-2.03l-0.76-1.9c-0.31-0.77-0.78-1.29-1.42-1.57
			C79.54,379.24,78.84,379.26,78.08,379.56z"/>
		<path class="st0" d="M70.04,364.65l13.06-3.97l1.01,3.31l-16.09,4.89l-2.91-9.59l3.03-0.92L70.04,364.65z"/>
		<path class="st0" d="M74.56,334.43c0.89,0.58,1.61,1.25,2.15,2.02c0.54,0.76,0.94,1.73,1.18,2.91c0.44,2.12,0.04,4.02-1.21,5.72
			s-3.12,2.8-5.61,3.32l-0.21,0.04c-2.49,0.52-4.66,0.25-6.49-0.83c-1.84-1.07-2.98-2.7-3.44-4.88c-0.42-2.02-0.15-3.86,0.82-5.5
			l3.08,1.02c-0.73,1.35-0.98,2.59-0.74,3.74c0.25,1.18,0.91,2.04,1.99,2.59c1.08,0.55,2.41,0.66,4,0.33l0.23-0.05
			c1.61-0.34,2.81-0.97,3.58-1.9c0.77-0.93,1.03-2,0.78-3.21c-0.24-1.18-0.99-2.24-2.24-3.19L74.56,334.43z"/>
		<path class="st0" d="M73.7,312.03l0.45,4.08l-6.42,4.92l2.13,1.33l4.92-0.55l0.38,3.44l-16.72,1.86l-0.38-3.44l7.21-0.8
			l-7.82-4.64l-0.46-4.11l7.69,4.83L73.7,312.03z"/>
		<path class="st0" d="M56.26,291.31l16.82-0.21l0.04,3.41l-10.55,0.13l10.62,5.95l0.04,3.2L56.42,304l-0.04-3.41l10.4-0.13
			l-10.48-5.92L56.26,291.31z"/>
		<path class="st0" d="M56.23,273.41c-0.09,1.02-0.45,1.83-1.09,2.42c-0.64,0.59-1.52,0.92-2.63,0.96l-0.19-1.99
			c1.04-0.15,1.6-0.68,1.68-1.59c0.08-0.88-0.38-1.49-1.38-1.83l0.53-1.91c1.09,0.24,1.9,0.71,2.42,1.4
			C56.1,271.56,56.32,272.4,56.23,273.41z M57.81,267.28l16.76,1.48l-0.3,3.4l-10.51-0.93l9.98,6.98l-0.28,3.18l-16.76-1.48l0.3-3.4
			l10.37,0.91l-9.83-6.95L57.81,267.28z"/>
		<path class="st0" d="M65.89,240.03l13.27,3.21l-0.82,3.36L62,242.65l2.36-9.74l3.08,0.75L65.89,240.03z"/>
		<path class="st0" d="M79.98,212.16c2.36,0.82,4.07,2.16,5.11,4.03c1.05,1.87,1.21,3.85,0.49,5.94c-0.73,2.1-2.07,3.57-4.04,4.39
			c-1.96,0.82-4.12,0.82-6.49,0l-0.27-0.09c-2.38-0.82-4.09-2.17-5.12-4.04c-1.04-1.87-1.19-3.85-0.47-5.96
			c0.72-2.09,2.07-3.54,4.03-4.36c1.96-0.82,4.12-0.82,6.49-0.01L79.98,212.16z M78.86,215.56l-0.27-0.09
			c-1.54-0.53-2.9-0.61-4.06-0.22s-1.93,1.14-2.32,2.26c-0.39,1.14-0.26,2.2,0.4,3.2s1.77,1.77,3.31,2.3l0.27,0.09
			c1.54,0.54,2.9,0.61,4.05,0.22c1.16-0.39,1.93-1.14,2.32-2.26c0.39-1.13,0.26-2.2-0.4-3.2C81.5,216.86,80.4,216.09,78.86,215.56z"
			/>
		<path class="st0" d="M94.68,194.42c0.37,1,0.54,1.97,0.52,2.9c-0.02,0.94-0.28,1.95-0.79,3.04c-0.91,1.96-2.37,3.25-4.39,3.86
			c-2.01,0.61-4.18,0.38-6.49-0.69l-0.2-0.09c-2.31-1.07-3.88-2.59-4.71-4.54c-0.83-1.96-0.78-3.95,0.16-5.97
			c0.87-1.87,2.18-3.18,3.94-3.92l1.86,2.67c-1.39,0.64-2.34,1.49-2.83,2.55c-0.51,1.09-0.49,2.18,0.05,3.27
			c0.54,1.09,1.54,1.97,3.01,2.66l0.22,0.1c1.5,0.69,2.83,0.9,4.01,0.61c1.18-0.28,2.02-0.99,2.54-2.11
			c0.51-1.09,0.54-2.39,0.11-3.89L94.68,194.42z"/>
		<path class="st0" d="M101.97,185.48c-0.54,0.93-1.22,1.59-2.03,1.99l-1.63-2.21c0.5-0.38,0.85-0.74,1.05-1.08
			c0.41-0.71,0.3-1.55-0.33-2.53l-13.61-1.48l1.92-3.28l9.07,1.11l-5.56-7.1l1.86-3.17l8.26,11.05c1,1.33,1.59,2.5,1.76,3.49
			C102.89,183.26,102.64,184.33,101.97,185.48z"/>
		<path class="st0" d="M118,160.74l-5.17,7.11l2.35,2.12l-1.75,2.41l-5.11-3.72l0.78-1.07c-0.83-1.34-1.88-2.63-3.14-3.87
			c-1.26-1.25-3-2.67-5.22-4.29l-1.69-1.23l6.3-8.67l11.04,8.03l1.02-1.4l4.86,4.07l-1.71,2.35L118,160.74z M105.88,154.21
			l-2.3,3.17l0.21,0.16c1.9,1.38,3.42,2.62,4.56,3.72c1.14,1.09,2.09,2.25,2.85,3.46l3.15-4.33L105.88,154.21z"/>
		<path class="st0" d="M134.66,140.92l-2.38,2.68l-3.56-1.49l-3.83,4.31l1.9,3.36l-2.31,2.6l-8.66-15.73l2.2-2.48L134.66,140.92z
			 M125.72,140.86l-5.31-2.27l2.87,5.02L125.72,140.86z"/>
		<path class="st0" d="M141.76,118.92c1.28,1.37,1.83,2.84,1.66,4.39c-0.17,1.55-0.92,2.96-2.27,4.21l-1.44,1.34l3.48,3.75
			l-2.54,2.35l-11.44-12.33l4.09-3.79c1.39-1.29,2.84-1.93,4.35-1.92C139.16,116.93,140.53,117.59,141.76,118.92z M139.24,121.36
			c-0.61-0.66-1.25-0.99-1.92-1.01c-0.67-0.01-1.32,0.27-1.95,0.86l-1.48,1.37l3.69,3.98l1.5-1.39c0.61-0.57,0.93-1.2,0.95-1.89
			S139.79,121.96,139.24,121.36z"/>
		<path class="st0" d="M164.44,112.33c-0.14,1.06-0.44,1.99-0.89,2.81c-0.45,0.82-1.15,1.6-2.11,2.33
			c-1.72,1.32-3.61,1.78-5.68,1.38c-2.07-0.39-3.88-1.6-5.43-3.62l-0.13-0.17c-1.55-2.02-2.24-4.09-2.07-6.21
			c0.17-2.12,1.14-3.86,2.91-5.21c1.64-1.26,3.41-1.81,5.31-1.65l0.41,3.23c-1.53-0.08-2.76,0.24-3.69,0.95
			c-0.95,0.73-1.45,1.7-1.47,2.92c-0.03,1.21,0.45,2.46,1.43,3.75l0.15,0.19c1,1.31,2.09,2.11,3.26,2.4
			c1.17,0.29,2.25,0.06,3.23-0.69c0.95-0.73,1.59-1.86,1.91-3.4L164.44,112.33z"/>
		<path class="st0" d="M174.98,91.6l-3.54,2.23l7.24,11.51l-2.95,1.85l-7.24-11.51l-3.56,2.24l-1.71-2.73l10.05-6.32L174.98,91.6z"
			/>
		<path class="st0" d="M198.87,89.03c0.67,1.33,0.7,2.6,0.08,3.81c-0.62,1.21-1.75,2.24-3.41,3.08l-5.7,2.89l-7.6-15l5.55-2.81
			c1.49-0.75,2.85-1.02,4.1-0.79c1.25,0.23,2.19,0.97,2.82,2.21c0.75,1.49,0.63,2.92-0.37,4.31c1.05-0.08,1.95,0.03,2.68,0.35
			c0.74,0.32,1.34,0.94,1.81,1.87L198.87,89.03z M191.91,84.48c-0.57-1.13-1.56-1.34-2.96-0.63l-2.29,1.16l1.73,3.41l2.14-1.09
			C192.03,86.58,192.49,85.62,191.91,84.48z M195.61,90.25c-0.61-1.2-1.69-1.41-3.25-0.62l-2.68,1.36l1.79,3.54l2.77-1.4
			c0.71-0.36,1.19-0.79,1.44-1.28C195.93,91.36,195.9,90.82,195.61,90.25z"/>
		<path class="st0" d="M219.26,85.57l-10.15,4.01l-6.18-15.64l10.06-3.97l1.15,2.91l-6.86,2.71l1.35,3.42l6.03-2.38l1.15,2.91
			l-6.03,2.38l1.39,3.51l6.95-2.75L219.26,85.57z"/>
		<path class="st0" d="M239.87,79.14l-3.32,0.96l-1.9-6.58l-5.33,1.54l1.9,6.58l-3.33,0.96l-4.67-16.16l3.32-0.96l1.88,6.49
			l5.33-1.54l-1.88-6.49l3.32-0.96L239.87,79.14z"/>
		<path class="st0" d="M261.59,74.64l-3.4,0.63l-1.24-6.73l-5.46,1.01l1.24,6.73l-3.4,0.63l-3.06-16.54l3.4-0.63l1.23,6.64
			l5.46-1.01l-1.23-6.64l3.4-0.63L261.59,74.64z"/>
		<path class="st0" d="M271.18,73.28l-1.24-16.77l3.45-0.26l0.41,5.58l2.44-0.18c1.82-0.13,3.3,0.25,4.42,1.17
			c1.13,0.91,1.75,2.23,1.88,3.96c0.13,1.79-0.33,3.22-1.39,4.28c-1.06,1.07-2.47,1.66-4.23,1.79L271.18,73.28z M274.4,69.91
			l2.42-0.18c0.77-0.06,1.35-0.32,1.76-0.79c0.41-0.47,0.58-1.08,0.53-1.83c-0.06-0.81-0.33-1.42-0.8-1.81
			c-0.47-0.39-1.1-0.56-1.88-0.5l-2.4,0.18L274.4,69.91z M284.53,72.29l-1.24-16.77l3.45-0.26l1.24,16.77L284.53,72.29z"/>
		<path class="st0" d="M310.91,55.59l-0.59,16.81l-3.41-0.12l0.37-10.54l-6.45,10.33l-3.19-0.11l0.59-16.81l3.41,0.12l-0.37,10.4
			l6.42-10.19L310.91,55.59z M304.7,54.34c-1.02-0.04-1.85-0.36-2.48-0.96c-0.63-0.61-0.99-1.47-1.1-2.58l1.98-0.29
			c0.21,1.03,0.76,1.57,1.68,1.6c0.88,0.03,1.47-0.46,1.76-1.48l1.93,0.43c-0.18,1.1-0.6,1.93-1.27,2.49
			C306.55,54.11,305.71,54.38,304.7,54.34z"/>
		<path class="st0" d="M334.87,75.55c-1.05-0.2-1.9-0.62-2.55-1.25l1.54-2.27c0.52,0.35,0.98,0.56,1.37,0.63
			c0.8,0.15,1.56-0.23,2.28-1.15l-3.13-13.33l3.73,0.72l1.97,8.92l4.84-7.61l3.61,0.7l-7.67,11.47c-0.92,1.39-1.82,2.33-2.71,2.82
			C337.27,75.69,336.17,75.81,334.87,75.55z"/>
		<path class="st0" d="M365.35,83l-3.32-0.98l1.95-6.57l-5.32-1.58l-1.95,6.56l-3.32-0.99l4.79-16.12l3.32,0.99l-1.92,6.47
			l5.32,1.58l1.92-6.47l3.32,0.98L365.35,83z"/>
		<path class="st0" d="M392.65,75.49l-6.39,15.56l-3.16-1.3l4.01-9.76l-9.63,7.45l-2.96-1.21l6.39-15.56l3.16,1.3l-3.95,9.62
			l9.55-7.33L392.65,75.49z"/>
		<path class="st0" d="M408.23,96.95c-0.7,1.32-1.72,2.07-3.06,2.26c-1.35,0.19-2.84-0.15-4.48-1.02l-5.65-3l7.89-14.86l5.5,2.92
			c1.47,0.78,2.47,1.75,3,2.9c0.53,1.15,0.47,2.34-0.18,3.58c-0.78,1.47-2.03,2.2-3.74,2.18c0.67,0.81,1.09,1.61,1.26,2.4
			c0.16,0.79,0,1.64-0.49,2.56L408.23,96.95z M405.36,94.99c0.63-1.19,0.18-2.19-1.37-3.01l-2.65-1.41l-1.86,3.5l2.74,1.45
			c0.71,0.38,1.33,0.52,1.88,0.44C404.63,95.88,405.06,95.55,405.36,94.99z M407.94,88.63c0.59-1.12,0.2-2.04-1.19-2.78l-2.27-1.21
			l-1.79,3.37l2.12,1.13C406.3,89.94,407.34,89.77,407.94,88.63z"/>
		<path class="st0" d="M422.8,111.62l-9.12-5.98l9.22-14.07l9.04,5.93l-1.71,2.61l-6.17-4.04l-2.02,3.07l5.43,3.56l-1.71,2.61
			l-5.42-3.56l-2.07,3.15l6.25,4.1L422.8,111.62z"/>
		<path class="st0" d="M446.24,115.64c-1.16,1.47-2.52,2.24-4.08,2.31c-1.56,0.07-3.06-0.46-4.51-1.61l-1.54-1.22l-3.18,4.01
			l-2.71-2.15l10.44-13.19l4.37,3.46c1.48,1.17,2.33,2.51,2.56,4C447.81,112.76,447.36,114.22,446.24,115.64z M443.44,113.52
			c0.56-0.7,0.79-1.39,0.7-2.05c-0.09-0.66-0.47-1.26-1.15-1.8l-1.58-1.25l-3.37,4.26l1.6,1.27c0.65,0.52,1.32,0.74,2.01,0.66
			C442.34,114.52,442.93,114.16,443.44,113.52z"/>
		<path class="st0" d="M456.23,137.03c-1.07,0.02-2.04-0.12-2.92-0.44c-0.88-0.32-1.75-0.9-2.62-1.73c-1.56-1.49-2.31-3.29-2.24-5.4
			c0.07-2.1,0.99-4.08,2.75-5.92l0.15-0.16c1.76-1.84,3.7-2.84,5.82-3c2.12-0.16,3.99,0.54,5.6,2.07c1.49,1.43,2.31,3.09,2.44,4.99
			l-3.12,0.9c-0.16-1.53-0.66-2.69-1.51-3.5c-0.87-0.83-1.91-1.17-3.11-1.01c-1.2,0.16-2.36,0.82-3.48,1.99l-0.17,0.17
			c-1.14,1.19-1.76,2.39-1.87,3.59c-0.11,1.2,0.28,2.23,1.17,3.08c0.87,0.83,2.09,1.28,3.65,1.36L456.23,137.03z"/>
		<path class="st0" d="M481.96,143.6l-12.76,10.96l-2.22-2.59l8-6.88l-11.96,2.26l-2.08-2.42l12.76-10.96l2.22,2.59l-7.89,6.78
			l11.84-2.19L481.96,143.6z"/>
		<path class="st0" d="M492.51,163.31l-2.41-3.42l-11.11,7.84l-2.01-2.85l11.11-7.84l-2.43-3.44l2.63-1.86l6.85,9.7L492.51,163.31z"
			/>
		<path class="st0" d="M491.57,188l-5.47-9.44l14.55-8.43l5.42,9.36l-2.7,1.57l-3.7-6.38l-3.18,1.84l3.25,5.61l-2.7,1.57l-3.25-5.61
			l-3.26,1.89l3.75,6.47L491.57,188z"/>
		<path class="st0" d="M512.67,200.22l-1.76-3.79l-12.33,5.74l-1.47-3.16l12.33-5.74l-1.78-3.81l2.92-1.36l5.01,10.76L512.67,200.22
			z"/>
		<path class="st0" d="M507.94,226.06l16.14-4.74l3.47,11.83l-16.14,4.74l-0.97-3.32l13.1-3.84l-1.52-5.19l-13.1,3.84L507.94,226.06
			z"/>
		<path class="st0" d="M513.97,249.65c-0.2-1.05-0.13-2,0.22-2.83l2.68,0.59c-0.13,0.61-0.15,1.11-0.08,1.51
			c0.15,0.8,0.79,1.37,1.91,1.69l11.22-7.84l0.71,3.73l-7.56,5.14l8.86,1.68l0.69,3.61l-13.49-2.88c-1.63-0.34-2.84-0.83-3.62-1.47
			C514.73,251.93,514.22,250.96,513.97,249.65z"/>
		<path class="st0" d="M531.79,277.82l-0.41-4.16l-13.54,1.32l-0.34-3.47l13.54-1.32l-0.41-4.18l3.21-0.31l1.16,11.81L531.79,277.82
			z"/>
		<path class="st0" d="M518.78,298.8l-0.1-10.91l16.82-0.15l0.1,10.81l-3.12,0.03l-0.07-7.38l-3.68,0.03l0.06,6.49l-3.12,0.03
			l-0.06-6.49l-3.77,0.03l0.07,7.47L518.78,298.8z"/>
		<path class="st0" d="M534.12,322l-16.76-1.45l0.29-3.4l10.51,0.91l-9.99-6.96l0.28-3.18l16.76,1.45l-0.29,3.4l-10.37-0.9
			l9.84,6.93L534.12,322z M535.69,315.86c0.09-1.02,0.45-1.83,1.09-2.43c0.64-0.6,1.51-0.92,2.63-0.97l0.19,2
			c-1.04,0.15-1.6,0.68-1.68,1.59c-0.08,0.88,0.39,1.49,1.39,1.83l-0.53,1.91c-1.09-0.24-1.9-0.7-2.42-1.39
			C535.82,317.72,535.6,316.87,535.69,315.86z"/>
		<path class="st0" d="M512.67,355.13c-0.55-0.91-0.91-1.83-1.07-2.75c-0.16-0.92-0.1-1.97,0.19-3.13c0.52-2.1,1.71-3.64,3.57-4.63
			c1.86-0.99,4.03-1.17,6.5-0.56l0.21,0.05c2.47,0.61,4.3,1.79,5.5,3.56c1.19,1.76,1.52,3.72,0.99,5.89
			c-0.5,2.01-1.53,3.54-3.11,4.6l-2.34-2.26c1.24-0.9,2.01-1.91,2.29-3.05c0.29-1.17,0.06-2.23-0.67-3.2
			c-0.74-0.96-1.89-1.64-3.46-2.03l-0.23-0.06c-1.6-0.4-2.95-0.34-4.05,0.16c-1.1,0.5-1.79,1.36-2.09,2.55
			c-0.29,1.17-0.07,2.45,0.64,3.84L512.67,355.13z"/>
		<path class="st0" d="M511.08,379.64c-2.35-0.84-4.04-2.2-5.07-4.08s-1.17-3.86-0.43-5.95c0.75-2.1,2.11-3.55,4.08-4.35
			c1.97-0.8,4.13-0.78,6.49,0.06l0.27,0.1c2.37,0.85,4.06,2.21,5.08,4.09c1.02,1.88,1.16,3.87,0.41,5.96
			c-0.75,2.08-2.1,3.52-4.07,4.32c-1.97,0.8-4.13,0.78-6.49-0.06L511.08,379.64z M512.23,376.25l0.27,0.1
			c1.54,0.55,2.89,0.64,4.05,0.26c1.16-0.38,1.95-1.12,2.34-2.24c0.4-1.13,0.28-2.2-0.37-3.21s-1.75-1.79-3.29-2.34l-0.27-0.1
			c-1.54-0.55-2.89-0.64-4.05-0.26c-1.16,0.38-1.94,1.12-2.34,2.24c-0.4,1.13-0.28,2.2,0.37,3.21
			C509.6,374.93,510.7,375.7,512.23,376.25z"/>
		<path class="st0" d="M500.86,401.93c-2.25-1.09-3.79-2.62-4.61-4.6c-0.82-1.98-0.75-3.97,0.21-5.96c0.97-2,2.47-3.3,4.52-3.89
			c2.04-0.59,4.19-0.34,6.44,0.75l0.26,0.12c2.26,1.09,3.81,2.63,4.62,4.61c0.82,1.98,0.74,3.97-0.23,5.97
			c-0.96,1.99-2.46,3.28-4.51,3.87c-2.05,0.59-4.19,0.34-6.44-0.75L500.86,401.93z M502.38,398.69l0.26,0.12
			c1.47,0.71,2.81,0.94,4,0.69c1.2-0.25,2.05-0.91,2.57-1.97c0.52-1.08,0.51-2.16-0.03-3.23c-0.54-1.07-1.55-1.96-3.02-2.67
			l-0.26-0.12c-1.47-0.71-2.8-0.94-4-0.69c-1.2,0.25-2.05,0.91-2.57,1.98c-0.52,1.08-0.51,2.16,0.03,3.23
			C499.9,397.09,500.91,397.98,502.38,398.69z"/>
		<path class="st0" d="M488.93,406.3l14.34,8.8l-5.79,9.44l-2.7-1.66l3.98-6.49l-2.52-1.55l-1.63,2.66c-0.9,1.48-2.03,2.4-3.36,2.77
			c-1.34,0.37-2.71,0.13-4.12-0.74c-1.46-0.9-2.31-2.05-2.54-3.46c-0.23-1.41,0.09-2.84,0.98-4.29L488.93,406.3z M489.78,410.88
			l-1.62,2.64c-0.36,0.59-0.47,1.15-0.34,1.7c0.14,0.54,0.48,0.99,1.04,1.33c0.63,0.38,1.21,0.51,1.73,0.37s0.97-0.51,1.34-1.11
			l1.61-2.62L489.78,410.88z"/>
		<path class="st0" d="M463.83,436.7l2.48,1.94l11.36-14.54l13.25,10.36l-2.13,2.73l-10.75-8.4l-2.97,3.8l10.75,8.41l-2.13,2.73
			l-10.75-8.41l-2.99,3.82l10.75,8.41l-2.13,2.73l-10.75-8.4l-1.05,1.34l-4.71-4.23L463.83,436.7z"/>
		<path class="st0" d="M450.8,455.15l7.64-7.79l12.01,11.78l-7.57,7.72l-2.23-2.19l5.17-5.27l-2.63-2.57l-4.54,4.63l-2.23-2.19
			l4.54-4.63l-2.69-2.64l-5.23,5.34L450.8,455.15z"/>
		<path class="st0" d="M434.61,469.39l2.65-2.23l4.41,5.24l4.25-3.58l-4.41-5.24l2.65-2.23l10.84,12.87l-2.65,2.23l-4.35-5.17
			l-4.25,3.58l4.35,5.17l-2.65,2.23L434.61,469.39z"/>
		<path class="st0" d="M425.88,496.31l-9.49-13.89l2.82-1.92l5.95,8.71l-0.93-12.14l2.64-1.8l9.49,13.89l-2.82,1.92l-5.87-8.59
			l0.87,12.01L425.88,496.31z"/>
		<path class="st0" d="M405.92,507.84l-8.07-14.76l3.06-1.67l2.65,4.85l1.92-1.05l0.07-6.34l3.48-1.9l-0.12,7.19
			c2.26-0.21,3.98,0.77,5.17,2.95c0.79,1.45,0.99,2.82,0.58,4.12c-0.4,1.3-1.34,2.39-2.8,3.29c-0.9,0.55-1.83,1.08-2.77,1.6
			L405.92,507.84z M407.38,497.67l-2.34,1.28l2.42,4.43l0.57-0.31c0.49-0.27,0.86-0.47,1.1-0.62c0.24-0.14,0.55-0.34,0.91-0.59
			c0.36-0.25,0.62-0.48,0.75-0.67c0.14-0.19,0.27-0.43,0.39-0.71c0.12-0.28,0.15-0.57,0.09-0.88s-0.19-0.65-0.39-1.02
			c-0.38-0.69-0.88-1.11-1.5-1.26S408.1,497.28,407.38,497.67z"/>
	</g>
	<path class="st0" d="M141.83,169.55l-0.96-1.24l-4.48-6.39c-30.3,36.11-48.54,82.68-48.54,133.51c0,50.24,17.82,96.32,47.49,132.26
		l0.65-1.03l4.55-7.21C113.29,385.44,97,342.27,97,295.29C97,247.59,113.81,203.8,141.83,169.55z M244.82,487.46
		c-0.37-0.1-0.74-0.2-1.11-0.3c-34.68-9.39-65.6-27.92-90-52.85l-12.61,0.06c26.59,29.59,61.56,51.51,101.18,62.02
		c0.06,0.02,0.13,0.04,0.19,0.05l3.11,0.02l1.39-8.99L244.82,487.46z M346.12,497.2c0.36-0.09,0.72-0.18,1.08-0.27
		c40.57-10.32,76.38-32.58,103.46-62.82H438c-24.9,25.53-56.63,44.37-92.23,53.6c-0.62,0.16-1.24,0.31-1.87,0.47 M455.51,162.4
		c-0.31,0.7-3.97,6.67-5.07,8.11c27.56,34.11,44.06,77.52,44.06,124.78c0,44.83-14.85,86.2-39.89,119.45h11.42
		c23.72-33.77,37.63-74.92,37.63-119.32C503.66,244.83,485.58,198.45,455.51,162.4z M295.75,87.52
		c-61.34,0-116.47,26.57-154.52,68.82h12.44c36.06-36.9,86.41-59.79,142.08-59.79c55.89,0,106.4,23.07,142.49,60.21h12.41
		C412.59,114.26,357.29,87.52,295.75,87.52z"/>
	<path class="st0" d="M281.55,405.79h14.51l30.4-55.71L305,350.24l-6.64,11.88h3.7c1.03,0,1.75,0.36,2.16,1.08
		c0.31,0.62,0.15,1.44-0.46,2.47L281.55,405.79z"/>
	<path class="st0" d="M316.42,404.87h17.59c2.57-0.1,4.68-0.57,6.33-1.39c1.75-0.72,3.24-2.01,4.48-3.86l2.01-3.09l7.1-13.43
		c0.93-1.75,1.34-3.19,1.23-4.32c-0.31-1.23-1.29-2.31-2.93-3.24l2.31-0.93c1.95-0.72,3.29-1.75,4.01-3.09l8.02-13.58l0.93-2.01
		c0.41-1.85-0.21-3.45-1.85-4.78c-1.65-1.34-3.55-2.01-5.71-2.01l-21.6,0.46c-1.03,0.51-2.37,2.21-4.01,5.09l-7.41,13.73
		c-0.62,1.23-0.87,2.47-0.77,3.7c0.1,1.54,0.87,2.47,2.31,2.78c-2.37,0-4.32,0.57-5.86,1.7c-1.23,0.82-2.57,2.47-4.01,4.94
		l-7.1,13.43c-1.34,2.57-1.65,4.78-0.93,6.64C311.38,403.79,313.33,404.87,316.42,404.87z M338.8,369.07l4.48-8.02l0.77-0.46
		l0.77-0.31l0.77-0.15h4.78c0.41,0,0.62,0.26,0.62,0.77l-0.15,1.08l-4.17,7.41l-1.85,1.85l-0.46,0.15l-4.63-0.15l-0.93-0.93
		C338.69,369.89,338.69,369.48,338.8,369.07z M325.83,393.6l0.77-2.16l4.63-8.64c1.23-2.47,2.16-3.75,2.78-3.86l7.41,0.15
		c0.82,0.1,1.13,0.57,0.93,1.39l-8.33,14.66c-0.41,0.51-1.13,0.77-2.16,0.77l-5.56-0.31C325.89,395.2,325.73,394.53,325.83,393.6z"
		/>
	<path class="st0" d="M269.2,281.42c3.81,11.52,5.2,21.91,4.17,31.17l71.45-127l72.22,0.15c8.95-0.51,16.25-2.98,21.91-7.41
		c4.42-3.6,8.95-9.57,13.58-17.9l-121.91-0.15l-50.31,86.57l-66.05-86.11l-32.41-0.15l69.13,88.58
		C259.02,258.11,265.09,268.87,269.2,281.42z"/>
	<path class="st0" d="M356.23,404.09c1.03,1.13,2.73,1.7,5.09,1.7h16.67l6.33-0.77l2.78-0.93c1.95-1.23,3.81-3.39,5.56-6.48
		l21.3-40.58l0.46-1.54c0.21-1.95-0.26-3.5-1.39-4.63c-1.23-1.13-3.03-1.7-5.4-1.7l-17.13,0.15l-6.17,0.77l-3.24,1.08
		c-1.95,1.34-3.75,3.55-5.4,6.64l-19.91,38.42l-1.08,3.55C354.48,401.73,355,403.17,356.23,404.09z M373.52,391.13l0.46-1.23
		l12.65-24.38c0.62-1.13,1.44-2.01,2.47-2.62c0.82-0.62,1.85-0.93,3.09-0.93c0.93,0,1.65,0.21,2.16,0.62
		c0.41,0.41,0.62,1.03,0.62,1.85l-0.15,0.46l-13.12,25l-2.16,2.78l-2.78,0.93c-1.13,0-1.95-0.26-2.47-0.77
		C373.67,392.52,373.41,391.96,373.52,391.13z"/>
	<path class="st0" d="M458.7,351.78c-1.13-1.13-2.88-1.7-5.25-1.7l-18.98,0.46c-2.78,0.31-4.99,0.93-6.64,1.85
		c-1.95,1.34-3.81,3.5-5.56,6.48l-11.42,20.99l-0.46,1.54c-0.21,1.85,0.21,3.34,1.23,4.48c1.03,0.93,2.67,1.39,4.94,1.39h11.88
		l-1.7,2.93l-2.31,2.78l-3.39,0.77h-17.13l-6.79,12.04h25.15c4.01,0,7.05-0.57,9.1-1.7l3.09-2.93l2.47-3.39l21.45-37.96l0.93-2.01
		l0.46-1.54C460.19,354.3,459.83,352.81,458.7,351.78z M441.26,364.13l-0.15,0.77l-6.02,10.49h-4.01c-1.23,0-2.11-0.21-2.62-0.62
		c-0.62-0.41-0.87-1.03-0.77-1.85l0.31-0.77l3.7-6.64c0.93-1.23,1.85-2.26,2.78-3.09c1.13-0.62,2.37-0.93,3.7-0.93
		c1.03,0,1.85,0.26,2.47,0.77C441.26,362.79,441.47,363.41,441.26,364.13z"/>
	<path class="st0" d="M239.57,299.47c2.06,8.85,2.01,17.44-0.15,25.77c-2.26,8.23-6.33,14.92-12.19,20.06
		c-6.28,5.56-13.89,8.44-22.84,8.64l-11.26,0.31l-12.5,22.99h30.09c13.17-2.57,24.12-8.28,32.87-17.13
		c8.02-8.02,13.73-18,17.13-29.94c3.19-11.11,4.01-22.53,2.47-34.26c-1.54-11.62-5.25-21.66-11.11-30.09l-83.02-105.4l-29.94-0.46
		l87.8,114.81C233.3,281.88,237.52,290.11,239.57,299.47z"/>
	<path class="st0" d="M137.72,430.74l316.43-0.31l4.79-5.6c0,0,4.7-5.91,5.07-6.44c-1.86,0-318.81,0.77-318.81,0.77L137.72,430.74z"
		/>
	<path class="st0" d="M310.87,260.58l-53.55,96.6c-5.56,7.3-12.76,13.84-21.6,19.6c-9.57,6.38-17.85,9.57-24.84,9.57l-35.8-0.15
		l-13.27,22.68l53.39-0.15c13.37-0.1,26.9-5.4,40.58-15.89c10.39-8.13,18.05-16.51,22.99-25.15l60.95-106.63L310.87,260.58z"/>
	<path class="st0" d="M426.27,207.04l6.17-10.49l-85.95,0.93l-13.43,23.76h67.59c4.53-0.41,9.05-1.7,13.58-3.86
		C419.89,214.8,423.9,211.36,426.27,207.04z"/>
	<path class="st0" d="M328.13,230.8l-13.58,23.92l67.74-0.15c4.32-0.31,9.16-1.8,14.51-4.48c6.28-3.29,10.54-7.1,12.81-11.42
		l4.94-9.57L328.13,230.8z"/>
	<path class="st0" d="M325.05,492.26c1.88-5.2,1.57-10.35-0.94-15.46c-0.45-1.7-0.54-3.36-0.27-4.97l-5.25-1.08
		c-3.05-2.33-7.8-3.14-14.26-2.42v-2.82c-4.93,2.96-7.53,6.81-7.8,11.56c2.6-2.87,5.92-3.45,9.95-1.75c0-1.79-0.76-3.18-2.29-4.17
		c2.6-0.63,4.71,0.04,6.32,2.02c1.08,1.97,1.21,3.9,0.4,5.78c-1.88,3.05-6.05,7.39-12.51,13.04l-1.29,1.09
		c-4.81-5.67-8.96-10.65-12.43-14.93l0.4-1.34l-3.36-3.63l-1.08,0.13l-1.75-2.02l-2.02,0.4l-1.08,1.48l1.61,2.28
		c-3.32,2.42-8.07,3.76-14.26,4.03c1.52,7.26,5.96,12.45,13.32,15.59c1.35-5.82,2.82-10.35,4.44-13.57
		c0.09-0.18,0.27-0.27,0.54-0.27l0.4-0.27c3.52,4.89,7.31,10.02,11.36,15.39l-12.17,10.28l-0.81-0.81v-0.81
		c-0.18-0.54-0.45-0.81-0.81-0.81l-1.21,0.13l-1.21-0.94l0.13-0.81l-0.67-0.81l-0.81,0.54l-1.75-1.61l-2.15,1.88l0.94,1.75
		l-0.4,1.21l0.54,0.67l0.67-0.27l1.08,1.48l-0.4,1.08l0.81,0.94l0.81-0.27l0.94,1.61l-1.88,1.61c-0.99-0.54-2.02-0.81-3.09-0.81
		c-1.61,0-2.96,0.54-4.04,1.61c-1.26,1.25-1.84,2.73-1.75,4.44c0,1.7,0.49,3.14,1.48,4.3c1.17,1.16,2.6,1.75,4.3,1.75
		c1.7,0.09,3.18-0.58,4.44-2.02c1.26-1.34,1.75-2.69,1.48-4.03l-0.27-2.02l2.15-1.75l1.35,1.21l-0.54,0.81l0.67,0.67l0.81-0.13
		l1.61,1.34l-0.4,0.67l0.67,0.67l1.48-0.4l1.61,1.34l2.56-2.02l-1.48-2.28l0.54-0.67l-0.54-0.81l-0.67,0.27l-0.81-1.21
		c0.36-0.72,0.4-1.3,0.13-1.75c-0.36-0.45-0.94-0.58-1.75-0.4l-0.94-0.94l12.09-10.28c5,6.57,10.39,13.49,16.15,20.76l2.96,2.02
		l1.61,0.13l1.48-0.27c1.26-1.79,1.08-3.72-0.54-5.78c-6.56-7.5-12.42-14.27-17.59-20.33l1.85-1.57c6.82-5.64,11.7-9.27,14.66-10.89
		c1.88-0.09,3.68,0.4,5.38,1.48c0.99,2.51,1.26,4.39,0.81,5.64c-0.99-0.72-2.02-1.25-3.09-1.61c1.08,3.14-0.27,6.09-4.04,8.87
		c4.93,0.63,8.97-1.08,12.11-5.11C325.95,493.16,325.05,492.8,325.05,492.26z M274.47,520.08c-0.54,0.63-1.3,0.94-2.29,0.94
		c-0.99,0-1.84-0.36-2.56-1.08c-0.81-0.72-1.21-1.48-1.21-2.28s0.31-1.57,0.94-2.28c0.54-0.72,1.12-1.08,1.75-1.08
		c0.81,0,1.12,0.18,0.94,0.54c-0.09,0.63,0.09,1.34,0.54,2.15l1.75,0.54c0.45-0.18,0.67-0.09,0.67,0.27
		C275.19,518.69,275.01,519.45,274.47,520.08z"/>
	<path class="st0" d="M354.81,536.98h-0.1l-3.91-25.03l-1.57-10l-0.74-4.74l-1.45-9.29l-4.18-26.74l-2.88,1.65l-3.03,0.7h-3.16
		l-3.16-0.55l-11.41-3.85v0.14l-4.67-1.65h-0.14l-3.02-0.69h-0.28l-2.48-0.28l-0.27-0.14h-0.14l-2.48,0.14
		c-2.84,0-5.18,0.6-7.01,1.78c-1.28,0.74-2.38,1.83-3.3,3.3c-1.19-1.28-2.42-2.29-3.71-3.02c-2.48-1.46-5.59-2.2-9.34-2.2v0.14
		h-0.15l-2.75,0.28h-0.14l-3.02,0.69h-0.13l-6.33,2.06l-0.28,0.14l-2.88,1.1h-0.14l-6.46,2.06l-3.16,0.55h-3.16l-2.88-0.7
		l-3.02-1.65l-4.1,26.19l-1.45,9.29l-1.43,9.14l-0.57,4.03l-0.66,4.34l-0.24,1.39l-3.49,22c-0.1-0.02-0.2-0.03-0.29-0.06l10.03,8.79
		l100.87,0.14l7.48-8.59l0.77-0.19l-0.08-0.59L354.81,536.98z M350.56,535.61c-1.7,0.59-3.55,0.99-5.55,1.19l-4.9-0.1
		c-1.06,0-2.16-0.05-3.29-0.14c-2.61-0.35-5.41-0.94-8.39-1.78c-4.31-1.38-9.85-3.89-16.62-7.55l-0.14-0.14h-0.55v-0.14h-0.27
		l-3.31-0.28h-0.13l-0.14-0.14h-3.3l-0.28,0.14h-0.14l-2.75,0.55h-0.27l-0.28,0.14l-0.13,0.13h-0.28l-2.48,1.51l-0.27,0.14
		l-0.14,0.28l-1.38,1.51l-2.06-1.93l-0.27-0.14l-2.34-1.38h-0.14l-0.28-0.13h-0.28l-0.27-0.14l-2.48-0.55h-0.28l-0.14-0.14h-3.57
		l-0.14,0.14h-0.15l-3.15,0.28h-0.14l-0.28,0.14h-0.28l-0.13,0.14c-5.5,2.93-10.49,5.04-14.99,6.31c-3.84,1.29-8.01,2.15-12.5,2.61
		l-12.09-0.68l6.04-38.72l1.41-9.05l3.41-21.84l2.34,0.55h4.67l3.17-0.55h0.55l3.16-1.1h0.14l3.16-0.96l0.14-0.13h0.14l6.18-2.2
		h0.14l2.89-0.96l5.36-0.96c3.02-0.09,5.49,0.46,7.42,1.65c1.56,0.92,3.02,2.38,4.4,4.39l1.65,2.75l1.37-2.88
		c0.74-2.2,1.84-3.71,3.31-4.53c1.09-0.83,2.84-1.24,5.22-1.24l2.48-0.14l5.22,0.96l9.34,3.16l0.14,0.13l3.16,0.96l0.14,0.14
		l3.3,0.96h0.41l3.17,0.55h4.4l2.47-0.55l3.6,22.53l1.45,9.08l0.91,5.67l0.19,1.21l4.98,31.12L350.56,535.61z"/>
</g>
</svg>
